<?xml version="1.0" encoding="UTF-8" standalone="no" ?>
<!DOCTYPE svg PUBLIC "-//W3C//DTD SVG 1.1//EN" "http://www.w3.org/Graphics/SVG/1.1/DTD/svg11.dtd">
<svg xmlns="http://www.w3.org/2000/svg" xmlns:xlink="http://www.w3.org/1999/xlink" version="1.1" width="350" height="350" viewBox="0 0 350 350" xml:space="preserve">
<desc>Created with Fabric.js 1.7.22</desc>
<defs>
</defs>
<g id="icon" style="stroke: none; stroke-width: 1; stroke-dasharray: none; stroke-linecap: butt; stroke-linejoin: miter; stroke-miterlimit: 10; fill: none; fill-rule: nonzero; opacity: 1;" transform="translate(-1.9444444444444287 -1.9444444444444287) scale(3.89 3.89)" >
	<path d="M 67.962 79.35 H 11.959 c -6.248 0 -11.314 -5.065 -11.314 -11.314 V 32.681 c 0 -6.248 5.065 -11.314 11.314 -11.314 h 56.003 c 6.248 0 11.314 5.065 11.314 11.314 v 35.355 C 79.276 74.285 74.211 79.35 67.962 79.35 z" style="stroke: none; stroke-width: 1; stroke-dasharray: none; stroke-linecap: butt; stroke-linejoin: miter; stroke-miterlimit: 10; fill: rgb(255,181,63); fill-rule: nonzero; opacity: 1;" transform=" matrix(1 0 0 1 0 0) " stroke-linecap="round" />
	<path d="M 67.963 79.996 H 11.959 C 5.365 79.996 0 74.63 0 68.036 V 32.681 c 0 -6.594 5.365 -11.96 11.959 -11.96 h 56.003 c 6.594 0 11.96 5.365 11.96 11.96 v 35.355 C 79.922 74.63 74.557 79.996 67.963 79.996 z M 11.959 22.013 c -5.882 0 -10.667 4.785 -10.667 10.668 v 35.355 c 0 5.882 4.785 10.668 10.667 10.668 h 56.003 c 5.882 0 10.668 -4.786 10.668 -10.668 V 32.681 c 0 -5.883 -4.786 -10.668 -10.668 -10.668 H 11.959 z" style="stroke: none; stroke-width: 1; stroke-dasharray: none; stroke-linecap: butt; stroke-linejoin: miter; stroke-miterlimit: 10; fill: rgb(29,29,27); fill-rule: nonzero; opacity: 1;" transform=" matrix(1 0 0 1 0 0) " stroke-linecap="round" />
	<polygon points="39.96,61.3 9.8,31.91 10.7,30.99 39.96,59.5 60.49,39.49 61.4,40.42 " style="stroke: none; stroke-width: 1; stroke-dasharray: none; stroke-linecap: butt; stroke-linejoin: miter; stroke-miterlimit: 10; fill: rgb(29,29,27); fill-rule: nonzero; opacity: 1;" transform="  matrix(1 0 0 1 0 0) "/>
	<rect x="59.03" y="47.06" rx="0" ry="0" width="1.29" height="27.25" style="stroke: none; stroke-width: 1; stroke-dasharray: none; stroke-linecap: butt; stroke-linejoin: miter; stroke-miterlimit: 10; fill: rgb(29,29,27); fill-rule: nonzero; opacity: 1;" transform=" matrix(0.6881 -0.7256 0.7256 0.6881 -25.4232 62.2349) "/>
	<rect x="6.8" y="60.04" rx="0" ry="0" width="27.25" height="1.29" style="stroke: none; stroke-width: 1; stroke-dasharray: none; stroke-linecap: butt; stroke-linejoin: miter; stroke-miterlimit: 10; fill: rgb(29,29,27); fill-rule: nonzero; opacity: 1;" transform=" matrix(0.7259 -0.6878 0.6878 0.7259 -36.1462 30.6853) "/>
	<circle cx="75.145" cy="24.855" r="14.205" style="stroke: none; stroke-width: 1; stroke-dasharray: none; stroke-linecap: butt; stroke-linejoin: miter; stroke-miterlimit: 10; fill: rgb(255,255,255); fill-rule: nonzero; opacity: 1;" transform="  matrix(1 0 0 1 0 0) "/>
	<path d="M 75.15 39.705 c -8.188 0 -14.851 -6.662 -14.851 -14.85 s 6.663 -14.851 14.851 -14.851 S 90 16.667 90 24.855 S 83.338 39.705 75.15 39.705 z M 75.15 11.296 c -7.477 0 -13.559 6.082 -13.559 13.559 c 0 7.476 6.082 13.558 13.559 13.558 c 7.476 0 13.558 -6.082 13.558 -13.558 C 88.708 17.379 82.626 11.296 75.15 11.296 z" style="stroke: none; stroke-width: 1; stroke-dasharray: none; stroke-linecap: butt; stroke-linejoin: miter; stroke-miterlimit: 10; fill: rgb(29,29,27); fill-rule: nonzero; opacity: 1;" transform=" matrix(1 0 0 1 0 0) " stroke-linecap="round" />
	<rect x="67.94" y="24.21" rx="0" ry="0" width="14.64" height="1.29" style="stroke: none; stroke-width: 1; stroke-dasharray: none; stroke-linecap: butt; stroke-linejoin: miter; stroke-miterlimit: 10; fill: rgb(29,29,27); fill-rule: nonzero; opacity: 1;" transform=" matrix(1 0 0 1 0 0) "/>
	<rect x="74.61" y="17.54" rx="0" ry="0" width="1.29" height="14.63" style="stroke: none; stroke-width: 1; stroke-dasharray: none; stroke-linecap: butt; stroke-linejoin: miter; stroke-miterlimit: 10; fill: rgb(29,29,27); fill-rule: nonzero; opacity: 1;" transform=" matrix(1 0 0 1 0 0) "/>
</g>
</svg>